<?xml version="1.0" encoding="utf-8"?>
<!-- Generator: Adobe Illustrator 26.1.0, SVG Export Plug-In . SVG Version: 6.00 Build 0)  -->
<svg version="1.1" id="Calque_1" xmlns="http://www.w3.org/2000/svg" xmlns:xlink="http://www.w3.org/1999/xlink" x="0px" y="0px"
	 viewBox="0 0 228.7 39.1" style="enable-background:new 0 0 228.7 39.1;" xml:space="preserve">
<style type="text/css">
	.st0{fill:#F8E92A;stroke:#F8E92A;stroke-miterlimit:10;}
</style>
<g>
	<g>
		<path class="st0" d="M62.8,16.2c-9.2,1.6-15.3,4-18.4,7.1c-1.1,1.1-1.6,2.2-1.6,3.3c0,0.9,0.3,1.6,1,2.3c0.7,0.7,2.1,1,4.2,1h13.9
			v3.2h-14c-3.2,0-5.4-0.6-6.6-1.9c-1.3-1.3-1.9-2.7-1.9-4.3c0-2.1,0.8-3.9,2.3-5.5c1.2-1.2,3.1-2.5,5.8-4c-0.6-1.4-0.9-3-1-4.8
			l-0.6-9.5h3c1.1,0.2,1.2,0.6,0.3,1.2l0.3,6.9c0.1,2,0.4,3.7,1,4.9c2.7-1.2,6.3-2.4,10.8-3.6L62.8,16.2z M64.6,8.5l-1.4,1.9
			c-1.7-1.2-3.6-2.4-5.6-3.6L59,4.9C61.2,6.3,63.1,7.5,64.6,8.5z M67.8,5.7l-1.4,1.9c-2-1.3-3.9-2.6-5.6-3.6L62.2,2
			C64.3,3.4,66.2,4.6,67.8,5.7z"/>
		<path class="st0" d="M91.2,20.4c-2.4,0-4.5,1.4-6.2,4.3c-1.1,1.7-2.1,4-3.2,6.6l-3.3-1.7c3.9-6.2,8.7-14.9,14.2-26.3l3.2,1.7
			c0.7,0.7,0.5,1.1-0.4,1.2c-2,3-4.4,7.1-7.2,12.3c1.6-0.7,3.1-1,4.3-1c1.2,0,2.1,0.3,2.7,1c0.7,0.7,1.1,2,1.3,4l0.9,5.5
			c0.2,1.3,1,1.9,2.3,1.9c1.3,0,2.3-0.4,3.2-1.3c1.8-1.8,3.3-5.4,4.3-10.8l3.2,1.6c-1.3,5.5-2.7,9.1-4.5,10.8
			c-1.9,1.9-4.1,2.9-6.5,2.9c-3,0-4.7-1.6-5.2-4.8l-1-6.2C93,21,92.3,20.4,91.2,20.4z"/>
		<path class="st0" d="M139.5,12c-2.5,0.5-4.9,0.9-7.1,1.2c-1.4,8.6-3.2,15.4-5.3,20.4l-3.2-1c2.6-6.1,4.4-12.4,5.5-19.1
			c-2.4,0.2-4.5,0.3-6.2,0.3l-0.6-2.9c2.7,0,5.1-0.1,7.2-0.3c0.4-3,0.7-5.6,1-7.8l2.9,0.6c1.1,0.3,1.2,0.7,0.3,1.2
			c-0.3,1.2-0.7,3.1-1.2,5.8c2.2-0.3,4.2-0.7,6.1-1.2L139.5,12z M152.4,30.1v3.2H146c-3.7,0-7.1-0.9-10.4-2.6l1.3-2.6
			c2.5,1.4,5.5,2,9.1,2H152.4z M151.7,18.1c-5.6,0.2-10,1-13.2,2.3l-0.9-2.9c4.1-1.6,8.6-2.5,13.4-2.5L151.7,18.1z M145.3,5.1
			c1.7,1.1,3.6,2.3,5.6,3.8l-1.3,2c-2.1-1.4-4-2.7-5.6-3.8L145.3,5.1z M148.2,2.2c1.5,0.9,3.4,2.1,5.6,3.8l-1.3,2
			c-2.1-1.5-4-2.8-5.6-3.8L148.2,2.2z"/>
		<path class="st0" d="M169.7,5.1l2.7,0.7c1.3,0.3,1.3,0.7,0.1,1.3c-0.9,4.1-1.3,8.3-1.3,12.6c0,3.5,0.4,7.1,1.2,11l-3.2,0.6
			c-0.7-3.5-1-7.3-1-11.6C168.2,14.1,168.7,9.2,169.7,5.1z M189.7,20.1c0,5.6-1.6,10.4-4.9,14.5l-3-1.7c3.4-3.9,5.1-8.3,5.1-13.3v-4
			c-3.7,0.3-7.1,0.4-10.4,0.4v-3.2c3.3,0.1,6.7,0,10.4-0.3V3.6h2.6c0.9,0.2,1,0.6,0.3,1.2v7.5c2.4-0.2,4.7-0.5,6.8-0.9l0.4,3
			c-2.5,0.3-4.9,0.5-7.2,0.7V20.1z"/>
	</g>
</g>
</svg>
